<svg width="12" height="17" viewBox="0 0 12 17" fill="none" xmlns="http://www.w3.org/2000/svg">
<path d="M6 12.8638L9.18225 9.68228C9.81151 9.05291 10.24 8.25108 10.4136 7.37819C10.5872 6.5053 10.498 5.60054 10.1574 4.77831C9.81677 3.95609 9.23999 3.25333 8.49999 2.7589C7.75998 2.26447 6.88999 2.00056 6 2.00056C5.11002 2.00056 4.24002 2.26447 3.50002 2.7589C2.76001 3.25333 2.18323 3.95609 1.84262 4.77831C1.502 5.60054 1.41284 6.5053 1.58641 7.37819C1.75998 8.25108 2.18849 9.05291 2.81775 9.68228L6 12.8638ZM10.2428 10.7428L6 14.9855L1.75725 10.7428C0.918169 9.90365 0.346755 8.83455 0.115268 7.67067C-0.116218 6.50679 0.00262021 5.30041 0.456755 4.20407C0.91089 3.10773 1.67993 2.17068 2.66661 1.5114C3.6533 0.85213 4.81333 0.500244 6 0.500244C7.18668 0.500244 8.3467 0.85213 9.33339 1.5114C10.3201 2.17068 11.0891 3.10773 11.5433 4.20407C11.9974 5.30041 12.1162 6.50679 11.8847 7.67067C11.6533 8.83455 11.0818 9.90365 10.2428 10.7428ZM0.750003 15.5H11.25V17H0.750003V15.5Z" fill="#3A3B36"/>
</svg>
